<svg width="148" height="19" viewBox="0 0 148 19" fill="none" xmlns="http://www.w3.org/2000/svg">
<path d="M11.336 5.936H5.384V7.808H9.848V11.12H5.384V12.992H11.336V18.248H0.44V0.68H11.336V5.936ZM21.5893 9.392C22.0853 7.376 22.5333 5.632 22.9333 4.16C23.3333 2.688 23.7573 1.52 24.2053 0.655999H29.6533C28.1973 3.52 27.0853 6.288 26.3173 8.96C25.5653 11.632 24.9413 14.288 24.4453 16.928C24.3813 17.328 24.3093 17.696 24.2293 18.032H20.1013L13.7413 0.655999H19.1173L21.5893 9.392ZM42.9401 5.936H36.9881V7.808H41.4521V11.12H36.9881V12.992H42.9401V18.248H32.0441V0.68H42.9401V5.936ZM51.4893 8.48C52.0173 8.368 52.3773 8.048 52.5693 7.52C52.6973 7.168 52.7613 6.816 52.7613 6.464C52.7613 6.112 52.7053 5.816 52.5933 5.576C52.4813 5.336 52.3293 5.216 52.1373 5.216H51.4893V8.48ZM46.5453 0.92H54.4413C55.3693 0.92 56.1773 1.152 56.8653 1.616C57.5693 2.064 58.0973 2.672 58.4493 3.44C58.8173 4.192 59.0013 5.008 59.0013 5.888C59.0013 7.104 58.6653 8.232 57.9933 9.272C57.5613 9.944 56.9373 10.544 56.1213 11.072C57.0333 12.08 58.1933 12.6 59.6013 12.632V18.512C58.1133 18.128 56.6493 17.432 55.2093 16.424C53.7693 15.416 52.6413 14.144 51.8253 12.608C51.6653 12.64 51.5533 12.656 51.4893 12.656V18.272H46.5453V0.92ZM78.0108 0.68C75.6908 3.128 73.8188 5.968 72.3948 9.2V18.248H67.4748V11.024L62.0028 0.68H67.4028L69.6828 5.528C69.9388 4.712 70.3068 3.88 70.7868 3.032C71.2668 2.168 71.8428 1.384 72.5148 0.68H78.0108Z" fill="white"/>
<path d="M93.5514 6.056C93.6314 5.224 93.8394 4.336 94.1754 3.392C94.5274 2.448 95.0234 1.536 95.6634 0.655999H101.111C99.7034 2.624 98.6394 4.632 97.9194 6.68C97.1994 8.728 96.7274 10.56 96.5034 12.176C96.2954 13.792 96.1514 15.568 96.0714 17.504L96.0474 18.032H92.9754L89.5674 9.56C88.4314 12.424 87.5914 15.248 87.0474 18.032H84.1674L79.1994 0.655999H84.5994L86.1114 6.2C86.2874 5.672 86.6554 4.776 87.2154 3.512C87.5994 2.648 88.1434 1.696 88.8474 0.655999H91.3914L92.3754 3.464L93.5514 6.056ZM114.398 5.936H108.446V7.808H112.91V11.12H108.446V12.992H114.398V18.248H103.502V0.68H114.398V5.936ZM124.843 10.52C124.779 11.224 124.651 11.976 124.459 12.776C124.427 12.904 124.387 13.056 124.339 13.232C124.307 13.408 124.275 13.608 124.243 13.832H125.539L124.843 10.52ZM116.563 18.272C117.827 16.512 118.851 14.656 119.635 12.704C120.419 10.736 120.995 8.96 121.363 7.376C121.731 5.776 122.059 4.104 122.347 2.36C122.395 2.104 122.483 1.616 122.611 0.896H126.739L132.475 18.272H127.099L126.211 15.824H123.475C122.915 16.896 122.427 17.712 122.011 18.272H116.563ZM139.581 8.48C140.109 8.368 140.469 8.048 140.661 7.52C140.789 7.168 140.853 6.816 140.853 6.464C140.853 6.112 140.797 5.816 140.685 5.576C140.573 5.336 140.421 5.216 140.229 5.216H139.581V8.48ZM134.637 0.92H142.533C143.461 0.92 144.269 1.152 144.957 1.616C145.661 2.064 146.189 2.672 146.541 3.44C146.909 4.192 147.093 5.008 147.093 5.888C147.093 7.104 146.757 8.232 146.085 9.272C145.653 9.944 145.029 10.544 144.213 11.072C145.125 12.08 146.285 12.6 147.693 12.632V18.512C146.205 18.128 144.741 17.432 143.301 16.424C141.861 15.416 140.733 14.144 139.917 12.608C139.757 12.64 139.645 12.656 139.581 12.656V18.272H134.637V0.92Z" fill="black"/>
</svg>
